# xmcd CD database file
#
# Track frame offsets:
#	150
#	21545
#	44112
#	62282
#	82057
#	98072
#	116735
#	139052
#	156155
#	175692
#	196207
#	215062
#	234042
#	256600
#
# Disc length: 3607 seconds
#
# Revision: 0
# Processed by: cddbd v1.5.1PL2 Copyright (c) Steve Scherf et al.
# Submitted via: CDex 1.51
#
DISCID=bc0e150e
DTITLE=さとう宗幸 - 風とともにVol.1
DYEAR=1993
DGENRE=JPop
TTITLE0=青葉城恋唄
TTITLE1=父〜愛と、夢と〜
TTITLE2=キスゲに寄す
TTITLE3=海の彼方に
TTITLE4=ゆうなの花
TTITLE5=芭蕉布
TTITLE6=追憶
TTITLE7=地球岬
TTITLE8=約束
TTITLE9=四万十の青き流れ
TTITLE10=忘れ言葉
TTITLE11=海の見える部屋
TTITLE12=娘をよろしく
TTITLE13=遠くへ行きたい
EXTD=YEAR: 1993
EXTT0=
EXTT1=
EXTT2=
EXTT3=
EXTT4=
EXTT5=
EXTT6=
EXTT7=
EXTT8=
EXTT9=
EXTT10=
EXTT11=
EXTT12=
EXTT13=
PLAYORDER=
